Fly_normalized_Motion_pl08
version=1
nRows=16
nColumns=43
inDegrees=yes
endheader
time		pelvis_tilt		pelvis_list		pelvis_rotation		pelvis_tx		pelvis_ty		pelvis_tz		hip_flexion_r		hip_adduction_r		hip_rotation_r		knee_angle_r		ankle_angle_r		subtalar_angle_r		mtp_angle_r		hip_flexion_l		hip_adduction_l		hip_rotation_l		knee_angle_l		ankle_angle_l		subtalar_angle_l		mtp_angle_l		lumbar_extension		lumbar_bending		lumbar_rotation		neck_flexion		neck_lateral_bending		neck_rotation		arm_flex_r		arm_add_r		arm_rot_r		elbow_flex_r		pro_sup_r		wrist_flex_r		wrist_dev_r		hand_finger_flex_r		arm_flex_l		arm_add_l		arm_rot_l		elbow_flex_l		pro_sup_l		wrist_flex_l		wrist_dev_l		hand_finger_flex_l		
0.379167		0.574337		-6.644896		88.515539		0.041694		1.746165		1.250918		57.915459		-0.468172		2.787197		-108.925545		-13.652703		-21.994294		-13.278973		67.219703		-6.104809		2.517572		-90.878445		-12.466710		-8.811887		12.736814		-44.679923		-1.112976		5.202876		26.199250		0.997319		-5.437611		69.051669		-31.712714		14.882360		58.281181		124.179894		-0.604265		-9.825588		6.119035		69.651225		-26.391822		22.724806		46.352087		130.244563		-12.672214		0.048370		7.007947		
0.383308		0.649207		-6.369812		88.590697		0.041587		1.741779		1.243347		58.548586		-0.401040		2.528573		-108.214315		-13.352964		-21.493083		-13.034219		67.106147		-6.061734		2.670757		-89.453206		-12.756535		-8.203971		13.052825		-45.197521		-1.036956		5.153866		26.386981		0.975807		-5.446382		67.451436		-31.884559		14.054826		58.215225		123.887191		-0.534532		-10.029025		6.597935		68.357001		-26.618632		22.140022		45.877252		130.443069		-12.578812		-0.249522		6.902898		
0.387449		0.763439		-6.062523		88.772336		0.041465		1.737139		1.235431		59.085311		-0.427572		2.180793		-107.500360		-12.955449		-20.594354		-12.491511		67.030200		-5.980293		2.946728		-88.119183		-13.501061		-7.272544		13.632668		-45.725713		-0.854522		5.102289		26.595581		0.794428		-5.439059		65.399447		-31.932784		12.531653		58.483966		123.472986		-0.668899		-10.423149		7.349463		66.854006		-26.669779		21.014477		45.375448		130.932146		-12.477026		-0.863870		6.647452		
0.391591		0.872577		-5.853500		88.890662		0.041293		1.732147		1.227408		59.693483		-0.396288		1.909207		-106.709140		-12.681407		-19.813501		-12.035662		66.982891		-5.930796		3.143184		-86.746676		-14.170125		-6.707187		13.853816		-46.109253		-0.706397		5.064562		26.664632		0.681538		-5.408068		63.394515		-32.026598		11.385340		58.645059		122.989834		-1.033619		-10.718565		7.479673		65.270735		-26.829632		20.175185		44.946081		131.004213		-12.642446		-1.252742		6.399960		
0.395732		0.946364		-5.642432		88.938769		0.041070		1.726907		1.219177		60.256926		-0.354808		1.738805		-105.894751		-12.350158		-18.784725		-11.397762		66.876138		-5.942929		3.225734		-85.395850		-14.714137		-6.209343		14.114285		-46.466645		-0.639520		5.066679		26.718546		0.642990		-5.444681		61.336455		-32.203908		10.296360		58.840993		122.460646		-1.273507		-10.962063		7.592191		63.619056		-26.988545		19.361020		44.554796		131.089826		-12.735685		-1.698684		6.140529		
0.399874		0.990656		-5.420169		88.945555		0.040802		1.721454		1.210773		60.768465		-0.325657		1.630465		-105.051894		-12.034875		-17.678021		-10.656073		66.700794		-6.014615		3.196908		-84.042429		-15.212921		-5.780789		14.357062		-46.825262		-0.627860		5.044072		26.802845		0.669309		-5.481581		59.238473		-32.387939		9.279739		59.066231		121.886224		-1.515155		-11.145503		7.569857		61.839075		-27.292155		18.666240		44.387620		131.074693		-12.842780		-2.031858		5.864253		
0.404015		0.981550		-5.218889		88.912278		0.040486		1.715751		1.202269		61.235089		-0.339911		1.676829		-104.184832		-11.563139		-15.755514		-7.698611		66.470940		-6.108901		3.067745		-82.653739		-15.688381		-5.451334		15.368611		-47.153415		-0.706718		5.030935		26.939535		0.785597		-5.600269		57.076268		-32.656929		8.256705		59.378486		121.032329		-1.390564		-11.073923		7.386399		59.953080		-27.559631		17.761747		44.395407		131.283819		-12.362247		-2.224735		5.077767		
0.408157		1.004095		-4.948870		88.908192		0.040304		1.709961		1.193632		61.602401		-0.318996		1.532623		-103.247230		-11.693209		-15.170737		-7.153564		66.142119		-6.272949		2.892361		-81.256906		-16.184728		-5.110860		15.449445		-47.562025		-0.734597		4.845463		27.067603		0.895715		-5.513584		54.953407		-32.654478		7.327918		59.593051		120.510041		-1.917687		-11.322756		7.029214		57.830038		-28.337843		17.413904		44.811636		130.900182		-12.728489		-2.232934		4.769784		
0.412298		1.002324		-4.856322		88.892933		0.040161		1.703915		1.185041		62.066705		-0.267928		1.518392		-102.234637		-11.547207		-13.931292		-5.995755		65.927736		-6.366496		2.776503		-79.785441		-16.593081		-4.820750		15.639217		-47.812864		-0.807736		4.629707		27.565133		1.081071		-5.414374		52.803574		-32.519044		6.209393		59.732859		119.735719		-2.304840		-11.519248		6.517627		55.620892		-29.043859		16.897977		45.270568		130.027977		-13.027175		-1.894228		4.330006		
0.416439		1.053339		-4.632684		88.869777		0.040018		1.697597		1.176316		62.341992		-0.191372		1.443680		-101.192944		-11.606542		-13.054345		-5.178593		65.610065		-6.541221		2.622295		-78.422849		-17.005989		-4.639860		15.707462		-48.085971		-0.808054		4.492821		27.468008		1.135312		-5.343533		50.682878		-32.524130		5.370460		59.880834		119.169539		-2.597945		-11.706652		6.143161		53.442480		-29.713766		16.594899		45.467775		129.416337		-13.264847		-1.792034		4.016539		
0.420581		1.126421		-4.479996		88.830542		0.040020		1.691093		1.167546		62.604468		-0.058410		1.359735		-100.056467		-11.691768		-12.145446		-4.325667		65.341614		-6.745595		2.483726		-77.064551		-17.415594		-4.523803		15.732869		-48.266505		-0.812685		4.387959		27.370972		1.147979		-5.274762		48.500882		-32.491043		4.462190		60.033996		118.572651		-2.890255		-11.917340		5.772637		51.241543		-30.286582		16.181673		45.522745		128.795357		-13.532469		-1.745244		3.689977		
0.424722		1.218987		-4.368829		88.771145		0.039968		1.684367		1.158721		62.825176		0.137718		1.327903		-98.854456		-11.812716		-11.212101		-3.403722		65.092960		-6.965425		2.356197		-75.700115		-17.823426		-4.469267		15.704581		-48.371975		-0.796476		4.332716		27.280269		1.127468		-5.209362		46.259007		-32.436891		3.473361		60.193356		117.938562		-3.177715		-12.155501		5.410964		48.999977		-30.736057		15.658194		45.456295		128.202955		-13.823688		-1.801079		3.344750		
0.428864		1.302477		-4.328032		88.702816		0.039843		1.677544		1.149842		63.014195		0.359444		1.400864		-97.535175		-11.971763		-10.124823		-2.236686		64.840123		-7.141955		2.256301		-74.278963		-18.219844		-4.456499		15.568557		-48.429411		-0.785604		4.316265		27.465903		1.129466		-5.143758		43.890290		-32.283049		2.168181		60.422017		117.133639		-3.528898		-12.481043		5.012506		46.668418		-30.969660		14.783411		45.304226		127.597438		-14.231519		-2.040507		2.897940		
0.433005		1.395211		-4.159224		88.618104		0.039787		1.670504		1.140816		63.024148		0.542204		1.355490		-96.213529		-12.181203		-9.427389		-1.529550		64.455764		-7.413224		2.056701		-72.944310		-18.518144		-4.384414		15.414232		-48.509028		-0.780387		4.285295		27.123296		1.097343		-5.058276		41.594890		-32.295638		1.324066		60.606478		116.602097		-3.764985		-12.759063		4.788156		44.360250		-31.335632		14.251478		45.122476		127.287318		-14.508226		-2.282551		2.614243		
0.437146		1.455922		-3.996542		88.556844		0.039659		1.663384		1.131716		62.960435		0.690664		1.367957		-94.832819		-12.376614		-8.689788		-0.846385		63.983655		-7.600570		1.890328		-71.537165		-18.783100		-4.275360		15.205993		-48.588634		-0.782707		4.220513		26.968879		1.117010		-4.955426		39.226874		-32.202085		0.283991		60.820143		115.977886		-4.064293		-13.095494		4.557325		41.959023		-31.591948		13.491536		44.960055		126.926766		-14.876541		-2.591081		2.289714		
0.441288		1.476735		-3.762408		88.499154		0.039370		1.656184		1.122450		62.730870		0.764956		1.402515		-93.390131		-12.558703		-8.020535		-0.289867		63.399261		-7.717969		1.727335		-70.153294		-19.024086		-4.090282		14.970098		-48.715213		-0.800906		4.097076		26.791768		1.185779		-4.823034		36.808476		-32.009255		-0.893988		61.064284		115.306212		-4.404306		-13.462894		4.337909		39.422482		-31.813310		12.600469		44.879415		126.525905		-15.279922		-2.944328		1.975378		
